<?xml version="1.0" encoding="UTF-8"?>
<svg width="383px" height="415px" viewBox="0 0 383 415" version="1.1" xmlns="http://www.w3.org/2000/svg" xmlns:xlink="http://www.w3.org/1999/xlink">
    <!-- Generator: Sketch 60.1 (88133) - https://sketch.com -->
    <title>花卉3</title>
    <desc>Created with Sketch.</desc>
    <defs>
        <polygon id="path-1" points="0.5813 0.52960968 37.711 0.52960968 37.711 33.2032545 0.5813 33.2032545"></polygon>
        <polygon id="path-3" points="0.1997 0.9463 277.2447 0.9463 277.2447 135 0.1997 135"></polygon>
    </defs>
    <g id="页面-1" stroke="none" stroke-width="1" fill="none" fill-rule="evenodd">
        <g id="画板" transform="translate(-2742.000000, -2014.000000)">
            <g id="花卉3" transform="translate(2742.000000, 2014.000000)">
                <path d="M23.2995,165.7743 C81.4985,186.0403 136.4075,242.8043 153.9065,283.7733 C159.1425,296.0283 160.3835,305.8563 157.5145,312.1303 C136.2985,358.5933 84.2935,337.5503 83.7705,337.3323 L85.0535,334.2543 C87.0675,335.0923 134.6105,354.2603 154.4805,310.7453 C156.9185,305.4523 155.6265,296.2893 150.8395,285.0823 C133.6195,244.7653 79.5415,188.8913 22.2035,168.9233 L23.2995,165.7743 Z" id="Fill-1" fill="#83ACC2"></path>
                <path d="M38.1926,175.0175 C38.1926,175.0175 22.8656,180.9575 12.1306,174.5145 C1.3946,168.0705 0.0006,151.2115 0.0006,151.2115 C0.0006,151.2115 19.3176,148.2555 32.0486,156.1905 C44.7796,164.1255 38.1926,175.0175 38.1926,175.0175" id="Fill-3" fill="#83ACC2"></path>
                <path d="M76.6418,196.1083 C76.6418,196.1083 74.1208,209.9313 64.5438,214.9893 C54.9668,220.0473 41.9228,213.7183 41.9228,213.7183 C41.9228,213.7183 48.4378,198.2723 60.0108,192.4013 C71.5838,186.5313 76.6418,196.1083 76.6418,196.1083" id="Fill-5" fill="#83ACC2"></path>
                <path d="M59.3557,183.0648 C59.3557,183.0648 71.5867,176.1488 73.2237,165.4428 C74.8607,154.7368 64.6047,144.4898 64.6047,144.4898 C64.6047,144.4898 52.1487,155.7108 50.3987,168.5688 C48.6497,181.4278 59.3557,183.0648 59.3557,183.0648" id="Fill-7" fill="#83ACC2"></path>
                <path d="M96.2253,209.9574 C96.2253,209.9574 109.6183,205.7084 113.4253,195.5694 C117.2323,185.4304 109.3063,173.2904 109.3063,173.2904 C109.3063,173.2904 94.8063,181.7054 90.4463,193.9274 C86.0863,206.1504 96.2253,209.9574 96.2253,209.9574" id="Fill-9" fill="#83ACC2"></path>
                <path d="M90.3137,254.4682 C90.3137,254.4682 103.7067,250.2202 107.5137,240.0802 C111.3207,229.9412 103.3947,217.8012 103.3947,217.8012 C103.3947,217.8012 88.8957,226.2172 84.5347,238.4392 C80.1747,250.6612 90.3137,254.4682 90.3137,254.4682" id="Fill-11" fill="#83ACC2"></path>
                <path d="M127.1951,242.8236 C127.1951,242.8236 141.0751,245.0096 149.0121,237.6406 C156.9501,230.2726 155.2851,215.8696 155.2851,215.8696 C155.2851,215.8696 138.5531,216.9176 129.1901,225.9016 C119.8271,234.8866 127.1951,242.8236 127.1951,242.8236" id="Fill-13" fill="#83ACC2"></path>
                <path d="M211.6037,296.6762 L210.0567,294.0482 C210.5717,293.7462 261.5677,263.6032 270.4017,245.9342 C278.8387,229.0612 329.6747,134.5122 351.7457,121.9022 L353.2567,124.5472 C333.2867,135.9592 285.0067,223.5362 273.1257,247.2962 C263.8907,265.7672 213.7337,295.4222 211.6037,296.6762" id="Fill-15" fill="#83ACC2"></path>
                <g id="编组" transform="translate(345.000000, 99.183000)">
                    <mask id="mask-2" fill="white">
                        <use xlink:href="#path-1"></use>
                    </mask>
                    <g id="Clip-18"></g>
                    <path d="M0.5813,27.9507 C0.5813,27.9507 1.2903,11.5287 11.5003,4.2807 C21.7093,-2.9673 37.7113,2.5197 37.7113,2.5197 C37.7113,2.5197 32.6683,21.4007 20.2913,29.8777 C7.9143,38.3547 0.5813,27.9507 0.5813,27.9507" id="Fill-17" fill="#83ACC2" mask="url(#mask-2)"></path>
                </g>
                <path d="M323.6692,156.4208 C323.6692,156.4208 335.5612,145.0718 347.9442,146.9218 C360.3282,148.7718 368.0622,163.8158 368.0622,163.8158 C368.0622,163.8158 351.3432,173.9338 336.5452,171.4688 C321.7472,169.0038 323.6692,156.4208 323.6692,156.4208" id="Fill-19" fill="#83ACC2"></path>
                <path d="M277.3411,148.1185 C277.3411,148.1185 293.4681,144.9385 302.9171,153.1535 C312.3661,161.3685 310.8041,178.2115 310.8041,178.2115 C310.8041,178.2115 291.2671,177.7585 280.1121,167.7275 C268.9571,157.6965 277.3411,148.1185 277.3411,148.1185" id="Fill-21" fill="#83ACC2"></path>
                <path d="M299.2961,196.0277 C299.2961,196.0277 311.1881,184.6787 323.5701,186.5287 C335.9541,188.3787 343.6891,203.4227 343.6891,203.4227 C343.6891,203.4227 326.9691,213.5407 312.1711,211.0757 C297.3741,208.6107 299.2961,196.0277 299.2961,196.0277" id="Fill-23" fill="#83ACC2"></path>
                <path d="M256.0139,187.7255 C256.0139,187.7255 272.1409,184.5455 281.5899,192.7605 C291.0389,200.9755 289.4769,217.8185 289.4769,217.8185 C289.4769,217.8185 269.9399,217.3655 258.7849,207.3345 C247.6309,197.3035 256.0139,187.7255 256.0139,187.7255" id="Fill-25" fill="#83ACC2"></path>
                <path d="M277.969,235.6351 C277.969,235.6351 289.861,224.2861 302.244,226.1351 C314.627,227.9851 322.362,243.0301 322.362,243.0301 C322.362,243.0301 305.643,253.1471 290.845,250.6821 C276.047,248.2171 277.969,235.6351 277.969,235.6351" id="Fill-27" fill="#83ACC2"></path>
                <path d="M242.5959,216.1859 C242.5959,216.1859 258.9309,218.0269 265.4569,228.7119 C271.9829,239.3979 265.4049,254.9829 265.4049,254.9829 C265.4049,254.9829 246.9169,248.6489 239.3149,235.7159 C231.7109,222.7839 242.5959,216.1859 242.5959,216.1859" id="Fill-29" fill="#83ACC2"></path>
                <path d="M206.2541,292.4555 L203.2191,292.1765 C218.2091,130.3055 107.3021,20.2975 106.1811,19.2055 L108.3051,17.0215 C109.4391,18.1245 221.3801,129.0995 206.2541,292.4555" id="Fill-31" fill="#83ACC2"></path>
                <path d="M116.8166,27.7309 C116.8166,27.7309 100.9476,32.0189 90.9536,24.4769 C80.9586,16.9359 81.3526,0.0239 81.3526,0.0239 C81.3526,0.0239 100.8746,-0.8751 112.6956,8.3599 C124.5176,17.5959 116.8166,27.7309 116.8166,27.7309" id="Fill-33" fill="#83ACC2"></path>
                <path d="M138.2004,57.3939 C138.2004,57.3939 135.6884,41.1489 144.2864,32.0469 C152.8844,22.9449 169.6494,25.2019 169.6494,25.2019 C169.6494,25.2019 168.3904,44.7039 157.9074,55.4349 C147.4244,66.1649 138.2004,57.3939 138.2004,57.3939" id="Fill-35" fill="#83ACC2"></path>
                <path d="M119.9202,106.141 C119.9202,106.141 117.4092,89.896 126.0062,80.794 C134.6042,71.692 151.3692,73.948 151.3692,73.948 C151.3692,73.948 150.1102,93.451 139.6272,104.181 C129.1442,114.912 119.9202,106.141 119.9202,106.141" id="Fill-37" fill="#83ACC2"></path>
                <path d="M167.5207,101.8886 C167.5207,101.8886 168.5027,85.4806 178.8327,78.4036 C189.1617,71.3266 205.0697,77.0786 205.0697,77.0786 C205.0697,77.0786 199.7117,95.8726 187.1967,104.1426 C174.6807,112.4126 167.5207,101.8886 167.5207,101.8886" id="Fill-39" fill="#83ACC2"></path>
                <path d="M139.3406,145.664 C139.3406,145.664 140.3226,129.256 150.6526,122.179 C160.9806,115.102 176.8886,120.854 176.8886,120.854 C176.8886,120.854 171.5316,139.648 159.0156,147.918 C146.4996,156.188 139.3406,145.664 139.3406,145.664" id="Fill-41" fill="#83ACC2"></path>
                <path d="M186.7805,152.6088 C186.7805,152.6088 194.0235,137.8538 206.2845,135.3148 C218.5455,132.7758 230.9975,144.2268 230.9975,144.2268 C230.9975,144.2268 218.7975,159.4938 204.0585,162.2878 C189.3195,165.0818 186.7805,152.6088 186.7805,152.6088" id="Fill-43" fill="#83ACC2"></path>
                <path d="M149.9729,179.057 C149.9729,179.057 157.2169,164.302 169.4769,161.763 C181.7379,159.224 194.1899,170.675 194.1899,170.675 C194.1899,170.675 181.9899,185.941 167.2509,188.736 C152.5119,191.53 149.9729,179.057 149.9729,179.057" id="Fill-45" fill="#83ACC2"></path>
                <path d="M198.967,195.2626 C198.967,195.2626 206.21,180.5066 218.471,177.9686 C230.732,175.4296 243.184,186.8796 243.184,186.8796 C243.184,186.8796 230.984,202.1466 216.245,204.9416 C201.506,207.7356 198.967,195.2626 198.967,195.2626" id="Fill-47" fill="#83ACC2"></path>
                <path d="M159.113,221.7108 C159.113,221.7108 166.356,206.9548 178.617,204.4168 C190.878,201.8778 203.329,213.3278 203.329,213.3278 C203.329,213.3278 191.13,228.5948 176.391,231.3888 C161.652,234.1838 159.113,221.7108 159.113,221.7108" id="Fill-49" fill="#83ACC2"></path>
                <path d="M205.0608,262.2894 C205.0608,262.2894 212.3038,247.5334 224.5648,244.9954 C236.8258,242.4564 249.2778,253.9064 249.2778,253.9064 C249.2778,253.9064 237.0778,269.1744 222.3378,271.9684 C207.5998,274.7624 205.0608,262.2894 205.0608,262.2894" id="Fill-51" fill="#83ACC2"></path>
                <path d="M162.1594,261.3178 C162.1594,261.3178 169.4034,246.5618 181.6634,244.0238 C193.9254,241.4848 206.3764,252.9348 206.3764,252.9348 C206.3764,252.9348 194.1774,268.2018 179.4374,270.9968 C164.6994,273.7908 162.1594,261.3178 162.1594,261.3178" id="Fill-53" fill="#83ACC2"></path>
                <g id="编组" transform="translate(51.000000, 279.183000)">
                    <mask id="mask-4" fill="white">
                        <use xlink:href="#path-3"></use>
                    </mask>
                    <g id="Clip-56"></g>
                    <path d="M22.6067,0.9463 L254.8367,0.9463 C267.2127,0.9463 277.2447,10.9773 277.2447,23.3523 L277.2447,36.6933 C277.2447,36.6933 265.3287,135.0003 140.2117,135.0003 C15.0947,135.0003 0.1997,48.6093 0.1997,48.6093 L0.1997,23.3523 C0.1997,10.9773 10.2317,0.9463 22.6067,0.9463" id="Fill-55" fill="#F4B687" mask="url(#mask-4)"></path>
                </g>
            </g>
        </g>
    </g>
</svg>